<svg width="60" height="60" viewBox="0 0 60 60" fill="none" xmlns="http://www.w3.org/2000/svg">
<path opacity="0.842657" fill-rule="evenodd" clip-rule="evenodd" d="M0 30V37C0 49.7025 10.2975 60 23 60H30H37C49.7025 60 60 49.7025 60 37V30V23C60 10.2975 49.7025 0 37 0H30H23C10.2975 0 0 10.2975 0 23V30Z" fill="#8280FF"/>
<path opacity="0.587821" fill-rule="evenodd" clip-rule="evenodd" d="M19.6666 20.3333C19.6666 23.2789 22.0544 25.6667 25 25.6667C27.9455 25.6667 30.3333 23.2789 30.3333 20.3333C30.3333 17.3878 27.9455 15 25 15C22.0544 15 19.6666 17.3878 19.6666 20.3333ZM33 25.6667C33 27.8758 34.7908 29.6667 37 29.6667C39.2091 29.6667 41 27.8758 41 25.6667C41 23.4575 39.2091 21.6667 37 21.6667C34.7908 21.6667 33 23.4575 33 25.6667Z" fill="white"/>
<path fill-rule="evenodd" clip-rule="evenodd" d="M24.9778 28.3333C18.6826 28.3333 13.5177 31.5687 13.0009 37.9323C12.9727 38.2789 13.6356 39 13.97 39H35.9956C36.9972 39 37.0128 38.194 36.9972 37.9333C36.6065 31.3909 31.3616 28.3333 24.9778 28.3333ZM44.2746 39L39.1333 39C39.1333 35.9988 38.1417 33.2291 36.4683 31.0008C41.0103 31.0505 44.7189 33.3469 44.998 38.2C45.0092 38.3955 44.998 39 44.2746 39Z" fill="white"/>
</svg>
